<mxfile host="Electron" agent="Mozilla/5.0 (Windows NT 10.0; Win64; x64) AppleWebKit/537.36 (KHTML, like Gecko) draw.io/24.7.17 Chrome/128.0.6613.36 Electron/32.0.1 Safari/537.36" version="24.7.17">
  <diagram name="Seite-1" id="B3YFkt79qNhnCS9u_vOM">
    <mxGraphModel dx="1674" dy="836" grid="1" gridSize="10" guides="1" tooltips="1" connect="1" arrows="1" fold="1" page="1" pageScale="1" pageWidth="827" pageHeight="1169" math="0" shadow="0">
      <root>
        <mxCell id="0" />
        <mxCell id="1" parent="0" />
        <mxCell id="ftHfzVe-QBZNlRweb19X-2" value="" style="points=[[0.03,0.03,0],[0.5,0,0],[0.97,0.03,0],[1,0.4,0],[0.97,0.745,0],[0.5,1,0],[0.03,0.745,0],[0,0.4,0]];verticalLabelPosition=bottom;sketch=0;html=1;verticalAlign=top;aspect=fixed;align=center;pointerEvents=1;shape=mxgraph.cisco19.workstation;fillColor=#007FFF;strokeColor=none;" vertex="1" parent="1">
          <mxGeometry x="150" y="640" width="100" height="80" as="geometry" />
        </mxCell>
        <mxCell id="ftHfzVe-QBZNlRweb19X-23" value="" style="verticalLabelPosition=bottom;html=1;verticalAlign=top;align=center;strokeColor=none;fillColor=#007FFF;shape=mxgraph.azure.server_rack;" vertex="1" parent="1">
          <mxGeometry x="600" y="160" width="80" height="80" as="geometry" />
        </mxCell>
        <mxCell id="ftHfzVe-QBZNlRweb19X-24" value="" style="verticalLabelPosition=bottom;html=1;verticalAlign=top;align=center;strokeColor=none;fillColor=#007FFF;shape=mxgraph.azure.server_rack;" vertex="1" parent="1">
          <mxGeometry x="610" y="360" width="80" height="80" as="geometry" />
        </mxCell>
        <mxCell id="ftHfzVe-QBZNlRweb19X-25" value="" style="verticalLabelPosition=bottom;html=1;verticalAlign=top;align=center;strokeColor=none;fillColor=#007FFF;shape=mxgraph.azure.server_rack;" vertex="1" parent="1">
          <mxGeometry x="610" y="570" width="80" height="80" as="geometry" />
        </mxCell>
        <mxCell id="ftHfzVe-QBZNlRweb19X-26" value="" style="verticalLabelPosition=bottom;html=1;verticalAlign=top;align=center;strokeColor=none;fillColor=#007FFF;shape=mxgraph.azure.server_rack;" vertex="1" parent="1">
          <mxGeometry x="160" y="320" width="80" height="80" as="geometry" />
        </mxCell>
        <mxCell id="ftHfzVe-QBZNlRweb19X-38" value="" style="endArrow=classic;html=1;rounded=0;exitX=0.25;exitY=-0.012;exitDx=0;exitDy=0;exitPerimeter=0;entryX=0.2;entryY=1.025;entryDx=0;entryDy=0;entryPerimeter=0;" edge="1" parent="1" source="ftHfzVe-QBZNlRweb19X-2" target="ftHfzVe-QBZNlRweb19X-26">
          <mxGeometry width="50" height="50" relative="1" as="geometry">
            <mxPoint x="670" y="450" as="sourcePoint" />
            <mxPoint x="720" y="400" as="targetPoint" />
          </mxGeometry>
        </mxCell>
        <mxCell id="ftHfzVe-QBZNlRweb19X-39" value="" style="endArrow=classic;html=1;rounded=0;exitX=0.763;exitY=1.038;exitDx=0;exitDy=0;exitPerimeter=0;entryX=0.7;entryY=-0.025;entryDx=0;entryDy=0;entryPerimeter=0;" edge="1" parent="1" source="ftHfzVe-QBZNlRweb19X-26" target="ftHfzVe-QBZNlRweb19X-2">
          <mxGeometry width="50" height="50" relative="1" as="geometry">
            <mxPoint x="220" y="477" as="sourcePoint" />
            <mxPoint x="210" y="470" as="targetPoint" />
          </mxGeometry>
        </mxCell>
        <mxCell id="ftHfzVe-QBZNlRweb19X-40" value="" style="endArrow=classic;html=1;rounded=0;exitX=0.588;exitY=-0.025;exitDx=0;exitDy=0;exitPerimeter=0;entryX=0;entryY=0.15;entryDx=0;entryDy=0;entryPerimeter=0;" edge="1" parent="1" source="ftHfzVe-QBZNlRweb19X-26" target="ftHfzVe-QBZNlRweb19X-23">
          <mxGeometry width="50" height="50" relative="1" as="geometry">
            <mxPoint x="320" y="360" as="sourcePoint" />
            <mxPoint x="370" y="310" as="targetPoint" />
          </mxGeometry>
        </mxCell>
        <mxCell id="ftHfzVe-QBZNlRweb19X-41" value="" style="endArrow=classic;html=1;rounded=0;exitX=0;exitY=0.5;exitDx=0;exitDy=0;exitPerimeter=0;entryX=0.99;entryY=0.01;entryDx=0;entryDy=0;entryPerimeter=0;" edge="1" parent="1" source="ftHfzVe-QBZNlRweb19X-23" target="ftHfzVe-QBZNlRweb19X-26">
          <mxGeometry width="50" height="50" relative="1" as="geometry">
            <mxPoint x="450" y="340" as="sourcePoint" />
            <mxPoint x="500" y="290" as="targetPoint" />
          </mxGeometry>
        </mxCell>
        <mxCell id="ftHfzVe-QBZNlRweb19X-42" value="" style="endArrow=classic;html=1;rounded=0;exitX=1.013;exitY=0.225;exitDx=0;exitDy=0;exitPerimeter=0;entryX=0.038;entryY=0.225;entryDx=0;entryDy=0;entryPerimeter=0;" edge="1" parent="1" source="ftHfzVe-QBZNlRweb19X-26" target="ftHfzVe-QBZNlRweb19X-24">
          <mxGeometry width="50" height="50" relative="1" as="geometry">
            <mxPoint x="250" y="380" as="sourcePoint" />
            <mxPoint x="300" y="330" as="targetPoint" />
          </mxGeometry>
        </mxCell>
        <mxCell id="ftHfzVe-QBZNlRweb19X-43" value="" style="endArrow=classic;html=1;rounded=0;exitX=0;exitY=0.5;exitDx=0;exitDy=0;exitPerimeter=0;entryX=1;entryY=0.5;entryDx=0;entryDy=0;entryPerimeter=0;" edge="1" parent="1" source="ftHfzVe-QBZNlRweb19X-24" target="ftHfzVe-QBZNlRweb19X-26">
          <mxGeometry width="50" height="50" relative="1" as="geometry">
            <mxPoint x="510" y="420" as="sourcePoint" />
            <mxPoint x="560" y="370" as="targetPoint" />
          </mxGeometry>
        </mxCell>
        <mxCell id="ftHfzVe-QBZNlRweb19X-44" value="" style="endArrow=classic;html=1;rounded=0;exitX=1.013;exitY=0.7;exitDx=0;exitDy=0;exitPerimeter=0;entryX=0.063;entryY=0.25;entryDx=0;entryDy=0;entryPerimeter=0;" edge="1" parent="1" source="ftHfzVe-QBZNlRweb19X-26" target="ftHfzVe-QBZNlRweb19X-25">
          <mxGeometry width="50" height="50" relative="1" as="geometry">
            <mxPoint x="360" y="440" as="sourcePoint" />
            <mxPoint x="410" y="390" as="targetPoint" />
          </mxGeometry>
        </mxCell>
        <mxCell id="ftHfzVe-QBZNlRweb19X-45" value="" style="endArrow=classic;html=1;rounded=0;exitX=0;exitY=0.5;exitDx=0;exitDy=0;exitPerimeter=0;entryX=1.013;entryY=0.888;entryDx=0;entryDy=0;entryPerimeter=0;" edge="1" parent="1" source="ftHfzVe-QBZNlRweb19X-25" target="ftHfzVe-QBZNlRweb19X-26">
          <mxGeometry width="50" height="50" relative="1" as="geometry">
            <mxPoint x="440" y="580" as="sourcePoint" />
            <mxPoint x="490" y="530" as="targetPoint" />
          </mxGeometry>
        </mxCell>
        <mxCell id="ftHfzVe-QBZNlRweb19X-46" value="DNS" style="text;html=1;align=center;verticalAlign=middle;resizable=0;points=[];autosize=1;strokeColor=none;fillColor=none;" vertex="1" parent="1">
          <mxGeometry x="170" y="370" width="50" height="30" as="geometry" />
        </mxCell>
        <mxCell id="ftHfzVe-QBZNlRweb19X-47" value="ROOT" style="text;html=1;align=center;verticalAlign=middle;resizable=0;points=[];autosize=1;strokeColor=none;fillColor=none;" vertex="1" parent="1">
          <mxGeometry x="605" y="210" width="60" height="30" as="geometry" />
        </mxCell>
        <mxCell id="ftHfzVe-QBZNlRweb19X-48" value="NAME" style="text;html=1;align=center;verticalAlign=middle;resizable=0;points=[];autosize=1;strokeColor=none;fillColor=none;" vertex="1" parent="1">
          <mxGeometry x="610" y="410" width="60" height="30" as="geometry" />
        </mxCell>
        <mxCell id="ftHfzVe-QBZNlRweb19X-49" value="WEB" style="text;html=1;align=center;verticalAlign=middle;resizable=0;points=[];autosize=1;strokeColor=none;fillColor=none;" vertex="1" parent="1">
          <mxGeometry x="620" y="620" width="50" height="30" as="geometry" />
        </mxCell>
        <mxCell id="ftHfzVe-QBZNlRweb19X-50" value="&lt;font style=&quot;font-size: 18px;&quot;&gt;SERVER&lt;/font&gt;" style="text;html=1;align=center;verticalAlign=middle;resizable=0;points=[];autosize=1;strokeColor=none;fillColor=none;" vertex="1" parent="1">
          <mxGeometry x="600" y="650" width="100" height="40" as="geometry" />
        </mxCell>
        <mxCell id="ftHfzVe-QBZNlRweb19X-51" value="&lt;font style=&quot;font-size: 18px;&quot;&gt;SERVER&lt;/font&gt;" style="text;html=1;align=center;verticalAlign=middle;resizable=0;points=[];autosize=1;strokeColor=none;fillColor=none;" vertex="1" parent="1">
          <mxGeometry x="60" y="340" width="100" height="40" as="geometry" />
        </mxCell>
        <mxCell id="ftHfzVe-QBZNlRweb19X-52" value="&lt;font style=&quot;font-size: 18px;&quot;&gt;SERVER fÃ¼r .de&lt;/font&gt;" style="text;html=1;align=center;verticalAlign=middle;resizable=0;points=[];autosize=1;strokeColor=none;fillColor=none;" vertex="1" parent="1">
          <mxGeometry x="565" y="230" width="150" height="40" as="geometry" />
        </mxCell>
        <mxCell id="ftHfzVe-QBZNlRweb19X-53" value="&lt;font style=&quot;font-size: 18px;&quot;&gt;SERVER&lt;/font&gt;" style="text;html=1;align=center;verticalAlign=middle;resizable=0;points=[];autosize=1;strokeColor=none;fillColor=none;" vertex="1" parent="1">
          <mxGeometry x="600" y="440" width="100" height="40" as="geometry" />
        </mxCell>
        <mxCell id="ftHfzVe-QBZNlRweb19X-54" value="www.sparkasse.de" style="text;html=1;align=center;verticalAlign=middle;resizable=0;points=[];autosize=1;strokeColor=none;fillColor=none;rotation=0;" vertex="1" parent="1">
          <mxGeometry x="50" y="530" width="120" height="30" as="geometry" />
        </mxCell>
        <mxCell id="ftHfzVe-QBZNlRweb19X-55" value="ist Sparkasse bei dir bekannt ?" style="text;html=1;align=center;verticalAlign=middle;resizable=0;points=[];autosize=1;strokeColor=none;fillColor=none;rotation=0;" vertex="1" parent="1">
          <mxGeometry x="305" y="185" width="190" height="30" as="geometry" />
        </mxCell>
        <mxCell id="ftHfzVe-QBZNlRweb19X-56" value="Ja den Kenne ich gehe zu 120.x.x.x" style="text;html=1;align=center;verticalAlign=middle;resizable=0;points=[];autosize=1;strokeColor=none;fillColor=none;rotation=-15;" vertex="1" parent="1">
          <mxGeometry x="355" y="250" width="210" height="30" as="geometry" />
        </mxCell>
        <mxCell id="ftHfzVe-QBZNlRweb19X-57" value="&lt;font style=&quot;font-size: 72px;&quot;&gt;1.&lt;/font&gt;" style="text;html=1;align=center;verticalAlign=middle;resizable=0;points=[];autosize=1;strokeColor=none;fillColor=none;" vertex="1" parent="1">
          <mxGeometry x="40" y="620" width="80" height="100" as="geometry" />
        </mxCell>
        <mxCell id="ftHfzVe-QBZNlRweb19X-58" value="&lt;font style=&quot;font-size: 72px;&quot;&gt;2.&lt;/font&gt;" style="text;html=1;align=center;verticalAlign=middle;resizable=0;points=[];autosize=1;strokeColor=none;fillColor=none;" vertex="1" parent="1">
          <mxGeometry x="60" y="230" width="80" height="100" as="geometry" />
        </mxCell>
        <mxCell id="ftHfzVe-QBZNlRweb19X-59" value="&lt;font style=&quot;font-size: 72px;&quot;&gt;3.&lt;/font&gt;" style="text;html=1;align=center;verticalAlign=middle;resizable=0;points=[];autosize=1;strokeColor=none;fillColor=none;" vertex="1" parent="1">
          <mxGeometry x="730" y="150" width="80" height="100" as="geometry" />
        </mxCell>
        <mxCell id="ftHfzVe-QBZNlRweb19X-60" value="&lt;font style=&quot;font-size: 72px;&quot;&gt;4.&lt;/font&gt;" style="text;html=1;align=center;verticalAlign=middle;resizable=0;points=[];autosize=1;strokeColor=none;fillColor=none;" vertex="1" parent="1">
          <mxGeometry x="710" y="360" width="80" height="100" as="geometry" />
        </mxCell>
        <mxCell id="ftHfzVe-QBZNlRweb19X-62" value="&lt;font style=&quot;font-size: 72px;&quot;&gt;5.&lt;/font&gt;" style="text;html=1;align=center;verticalAlign=middle;resizable=0;points=[];autosize=1;strokeColor=none;fillColor=none;" vertex="1" parent="1">
          <mxGeometry x="710" y="570" width="80" height="100" as="geometry" />
        </mxCell>
        <mxCell id="ftHfzVe-QBZNlRweb19X-63" value="Ja hier meine index.html" style="text;html=1;align=center;verticalAlign=middle;resizable=0;points=[];autosize=1;strokeColor=none;fillColor=none;rotation=30;" vertex="1" parent="1">
          <mxGeometry x="365" y="530" width="150" height="30" as="geometry" />
        </mxCell>
        <mxCell id="ftHfzVe-QBZNlRweb19X-64" value="index.html" style="text;html=1;align=center;verticalAlign=middle;resizable=0;points=[];autosize=1;strokeColor=none;fillColor=none;rotation=0;" vertex="1" parent="1">
          <mxGeometry x="225" y="570" width="80" height="30" as="geometry" />
        </mxCell>
        <mxCell id="ftHfzVe-QBZNlRweb19X-65" value="Kannst du mir die Adresse von sparkasse.de nennen ?" style="text;html=1;align=center;verticalAlign=middle;resizable=0;points=[];autosize=1;strokeColor=none;fillColor=none;rotation=5;" vertex="1" parent="1">
          <mxGeometry x="285" y="330" width="310" height="30" as="geometry" />
        </mxCell>
        <mxCell id="ftHfzVe-QBZNlRweb19X-66" value="Ja die IP zum Web server lautet&amp;nbsp;&amp;nbsp;185.85.1.81" style="text;html=1;align=center;verticalAlign=middle;resizable=0;points=[];autosize=1;strokeColor=none;fillColor=none;rotation=10;" vertex="1" parent="1">
          <mxGeometry x="305" y="380" width="260" height="30" as="geometry" />
        </mxCell>
        <mxCell id="ftHfzVe-QBZNlRweb19X-67" value="185.85.1.81 hast du eine webseite ?" style="text;html=1;align=center;verticalAlign=middle;resizable=0;points=[];autosize=1;strokeColor=none;fillColor=none;rotation=30;" vertex="1" parent="1">
          <mxGeometry x="380" y="480" width="220" height="30" as="geometry" />
        </mxCell>
      </root>
    </mxGraphModel>
  </diagram>
</mxfile>
